name C:\Users\u0101727\Documents\MyRepositories\upper-imu-dc\OpenSim\subject0\MA\ResultsMA\grid_4nodes_9dim\angles_24.mot
datacolumns 10
datarows 47
range 2425.01000000 2425.47000000
endheader 
time	clav_prot	clav_elev	scapula_abduction	scapula_elevation	scapula_upward_rot	scapula_winging	plane_elv	shoulder_elv	axial_rot	
       2425.01000000	        -50.00000000	          0.00000000	        -40.00000000	         -3.33333333	         90.00000000	        -20.00000000	         90.00000000	         63.33333333	         90.00000000	
       2425.02000000	        -38.33333333	          0.00000000	        -40.00000000	         -3.33333333	         90.00000000	        -20.00000000	         90.00000000	         63.33333333	         90.00000000	
       2425.03000000	        -26.66666667	          0.00000000	        -40.00000000	         -3.33333333	         90.00000000	        -20.00000000	         90.00000000	         63.33333333	         90.00000000	
       2425.04000000	        -15.00000000	          0.00000000	        -40.00000000	         -3.33333333	         90.00000000	        -20.00000000	         90.00000000	         63.33333333	         90.00000000	
       2425.05000000	        -50.00000000	         10.00000000	        -40.00000000	         -3.33333333	         90.00000000	        -20.00000000	         90.00000000	         63.33333333	         90.00000000	
       2425.06000000	        -38.33333333	         10.00000000	        -40.00000000	         -3.33333333	         90.00000000	        -20.00000000	         90.00000000	         63.33333333	         90.00000000	
       2425.07000000	        -26.66666667	         10.00000000	        -40.00000000	         -3.33333333	         90.00000000	        -20.00000000	         90.00000000	         63.33333333	         90.00000000	
       2425.08000000	        -15.00000000	         10.00000000	        -40.00000000	         -3.33333333	         90.00000000	        -20.00000000	         90.00000000	         63.33333333	         90.00000000	
       2425.09000000	        -50.00000000	         20.00000000	        -40.00000000	         -3.33333333	         90.00000000	        -20.00000000	         90.00000000	         63.33333333	         90.00000000	
       2425.10000000	        -38.33333333	         20.00000000	        -40.00000000	         -3.33333333	         90.00000000	        -20.00000000	         90.00000000	         63.33333333	         90.00000000	
       2425.11000000	        -26.66666667	         20.00000000	        -40.00000000	         -3.33333333	         90.00000000	        -20.00000000	         90.00000000	         63.33333333	         90.00000000	
       2425.12000000	        -15.00000000	         20.00000000	        -40.00000000	         -3.33333333	         90.00000000	        -20.00000000	         90.00000000	         63.33333333	         90.00000000	
       2425.13000000	        -50.00000000	        -10.00000000	        -21.66666667	         -3.33333333	         90.00000000	        -20.00000000	         90.00000000	         63.33333333	         90.00000000	
       2425.14000000	        -38.33333333	        -10.00000000	        -21.66666667	         -3.33333333	         90.00000000	        -20.00000000	         90.00000000	         63.33333333	         90.00000000	
       2425.15000000	        -26.66666667	        -10.00000000	        -21.66666667	         -3.33333333	         90.00000000	        -20.00000000	         90.00000000	         63.33333333	         90.00000000	
       2425.16000000	        -15.00000000	        -10.00000000	        -21.66666667	         -3.33333333	         90.00000000	        -20.00000000	         90.00000000	         63.33333333	         90.00000000	
       2425.17000000	        -50.00000000	          0.00000000	        -21.66666667	         -3.33333333	         90.00000000	        -20.00000000	         90.00000000	         63.33333333	         90.00000000	
       2425.18000000	        -38.33333333	          0.00000000	        -21.66666667	         -3.33333333	         90.00000000	        -20.00000000	         90.00000000	         63.33333333	         90.00000000	
       2425.19000000	        -26.66666667	          0.00000000	        -21.66666667	         -3.33333333	         90.00000000	        -20.00000000	         90.00000000	         63.33333333	         90.00000000	
       2425.20000000	        -15.00000000	          0.00000000	        -21.66666667	         -3.33333333	         90.00000000	        -20.00000000	         90.00000000	         63.33333333	         90.00000000	
       2425.21000000	        -50.00000000	         10.00000000	        -21.66666667	         -3.33333333	         90.00000000	        -20.00000000	         90.00000000	         63.33333333	         90.00000000	
       2425.22000000	        -38.33333333	         10.00000000	        -21.66666667	         -3.33333333	         90.00000000	        -20.00000000	         90.00000000	         63.33333333	         90.00000000	
       2425.23000000	        -26.66666667	         10.00000000	        -21.66666667	         -3.33333333	         90.00000000	        -20.00000000	         90.00000000	         63.33333333	         90.00000000	
       2425.24000000	        -15.00000000	         10.00000000	        -21.66666667	         -3.33333333	         90.00000000	        -20.00000000	         90.00000000	         63.33333333	         90.00000000	
       2425.25000000	        -50.00000000	         20.00000000	        -21.66666667	         -3.33333333	         90.00000000	        -20.00000000	         90.00000000	         63.33333333	         90.00000000	
       2425.26000000	        -38.33333333	         20.00000000	        -21.66666667	         -3.33333333	         90.00000000	        -20.00000000	         90.00000000	         63.33333333	         90.00000000	
       2425.27000000	        -26.66666667	         20.00000000	        -21.66666667	         -3.33333333	         90.00000000	        -20.00000000	         90.00000000	         63.33333333	         90.00000000	
       2425.28000000	        -15.00000000	         20.00000000	        -21.66666667	         -3.33333333	         90.00000000	        -20.00000000	         90.00000000	         63.33333333	         90.00000000	
       2425.29000000	        -50.00000000	        -10.00000000	         -3.33333333	         -3.33333333	         90.00000000	        -20.00000000	         90.00000000	         63.33333333	         90.00000000	
       2425.30000000	        -38.33333333	        -10.00000000	         -3.33333333	         -3.33333333	         90.00000000	        -20.00000000	         90.00000000	         63.33333333	         90.00000000	
       2425.31000000	        -26.66666667	        -10.00000000	         -3.33333333	         -3.33333333	         90.00000000	        -20.00000000	         90.00000000	         63.33333333	         90.00000000	
       2425.32000000	        -15.00000000	        -10.00000000	         -3.33333333	         -3.33333333	         90.00000000	        -20.00000000	         90.00000000	         63.33333333	         90.00000000	
       2425.33000000	        -50.00000000	          0.00000000	         -3.33333333	         -3.33333333	         90.00000000	        -20.00000000	         90.00000000	         63.33333333	         90.00000000	
       2425.34000000	        -38.33333333	          0.00000000	         -3.33333333	         -3.33333333	         90.00000000	        -20.00000000	         90.00000000	         63.33333333	         90.00000000	
       2425.35000000	        -26.66666667	          0.00000000	         -3.33333333	         -3.33333333	         90.00000000	        -20.00000000	         90.00000000	         63.33333333	         90.00000000	
       2425.36000000	        -15.00000000	          0.00000000	         -3.33333333	         -3.33333333	         90.00000000	        -20.00000000	         90.00000000	         63.33333333	         90.00000000	
       2425.37000000	        -50.00000000	         10.00000000	         -3.33333333	         -3.33333333	         90.00000000	        -20.00000000	         90.00000000	         63.33333333	         90.00000000	
       2425.38000000	        -38.33333333	         10.00000000	         -3.33333333	         -3.33333333	         90.00000000	        -20.00000000	         90.00000000	         63.33333333	         90.00000000	
       2425.39000000	        -26.66666667	         10.00000000	         -3.33333333	         -3.33333333	         90.00000000	        -20.00000000	         90.00000000	         63.33333333	         90.00000000	
       2425.40000000	        -15.00000000	         10.00000000	         -3.33333333	         -3.33333333	         90.00000000	        -20.00000000	         90.00000000	         63.33333333	         90.00000000	
       2425.41000000	        -50.00000000	         20.00000000	         -3.33333333	         -3.33333333	         90.00000000	        -20.00000000	         90.00000000	         63.33333333	         90.00000000	
       2425.42000000	        -38.33333333	         20.00000000	         -3.33333333	         -3.33333333	         90.00000000	        -20.00000000	         90.00000000	         63.33333333	         90.00000000	
       2425.43000000	        -26.66666667	         20.00000000	         -3.33333333	         -3.33333333	         90.00000000	        -20.00000000	         90.00000000	         63.33333333	         90.00000000	
       2425.44000000	        -15.00000000	         20.00000000	         -3.33333333	         -3.33333333	         90.00000000	        -20.00000000	         90.00000000	         63.33333333	         90.00000000	
       2425.45000000	        -50.00000000	        -10.00000000	         15.00000000	         -3.33333333	         90.00000000	        -20.00000000	         90.00000000	         63.33333333	         90.00000000	
       2425.46000000	        -38.33333333	        -10.00000000	         15.00000000	         -3.33333333	         90.00000000	        -20.00000000	         90.00000000	         63.33333333	         90.00000000	
       2425.47000000	        -26.66666667	        -10.00000000	         15.00000000	         -3.33333333	         90.00000000	        -20.00000000	         90.00000000	         63.33333333	         90.00000000	
